<svg id="Layer_1" enable-background="new 0 0 68 68" height="512" viewBox="0 0 68 68" width="512" xmlns="http://www.w3.org/2000/svg"><g><g><g><g><path d="m60.7749939 4.9949951v58.0100098c0 1.6568527-1.3431473 3-3 3h-47.5499878c-1.6568546 0-3-1.3431473-3-3v-48.9700318h9.0499878c1.6568546 0 3-1.3431454 3-3v-9.039978h38.5c1.6568527 0 3 1.3431459 3 3z" fill="#e9edf4"/></g></g><g><g><path d="m7.2250061 14.0349731h9.0499878c1.6568546 0 3-1.3431454 3-3v-9.039978z" fill="#d2dbea"/></g></g></g><g><g><path d="m64 39.1879425v13.9199829c0 1.6568527-1.3431473 3-3 3h-54c-1.6568542 0-3-1.3431473-3-3v-13.9199829c0-1.6568565 1.3431458-3 3-3h54c1.6568527 0 3 1.3431435 3 3z" fill="#f14f4a"/></g></g><g><g><g><path d="m52.5327148 22.4969063c0 .7176342-.5722008 1.289835-1.2898369 1.289835h-34.4857578c-.7079849 0-1.2898331-.5722008-1.2898331-1.289835 0-.7176323.5818481-1.2898331 1.2898331-1.2898331h34.4857579c.7176361 0 1.2898368.5722008 1.2898368 1.2898331z" fill="#d2dbea"/></g></g><g><g><path d="m52.5327148 29.1073055c0 .7176323-.5722008 1.2898331-1.2898369 1.2898331h-34.4857578c-.7079849 0-1.2898331-.5722008-1.2898331-1.2898331 0-.7176342.5818481-1.289835 1.2898331-1.289835h34.4857579c.7176361.0000001 1.2898368.5722008 1.2898368 1.289835z" fill="#d2dbea"/></g></g></g><g fill="#fff"><g><path d="m21.2782593 50.9066544c-.1220703-.121582-.1826172-.2714844-.1826172-.449707v-8.5986328c0-.1777344.0605469-.3300781.1826172-.456543.1210938-.1264648.2714844-.1894531.4492188-.1894531h3.203125c.8896484 0 1.6162109.1499023 2.1777344.4492188.5625.2998047.9648438.684082 1.2089844 1.1523438.2431641.4682617.3652344.9741211.3652344 1.5170898 0 .543457-.1220703 1.0493164-.3652344 1.5175781-.2441406.46875-.6464844.8525391-1.2089844 1.1523438-.5615234.2998047-1.2880859.4492188-2.1777344.4492188h-2.5566406v3.0068359c0 .1782227-.0634766.328125-.1894531.449707-.1269531.121582-.2792969.1826172-.4570313.1826172s-.3281251-.0610353-.4492188-.1826173zm3.5263672-4.6645508c.9550781 0 1.6269531-.1826172 2.015625-.5478516.3886719-.3657227.5830078-.8198242.5830078-1.3632813 0-.5429688-.1943359-.9975586-.5830078-1.3627815-.3886719-.3652458-1.0605469-.547863-2.015625-.547863h-2.4306641v3.8217773h2.4306641z"/><path d="m21.727478 51.3392715c-.2421875 0-.4589844-.0883789-.6259766-.2558594-.1699219-.1694336-.2558594-.3798828-.2558594-.6264648v-8.5986328c0-.2446289.0849609-.456543.2529297-.6303711.1660156-.1733398.3837891-.265625.6289063-.265625h3.203125c.9277344 0 1.6992188.1611328 2.2949219.4785156.6044922.3222656 1.0458984.7451172 1.3134766 1.2573242.2607422.5029297.3935547 1.0522461.3935547 1.6328125s-.1328125 1.1303711-.3935547 1.6328125c-.2666016.512207-.7089844.9355469-1.3134766 1.2578125-.5947266.3173828-1.3662109.4785156-2.2949219.4785156h-2.3066406v2.7568359c0 .2441406-.0917969.4619141-.265625.6293945-.1757812.1679689-.3876953.2529298-.6308594.2529298zm0-9.8769531c-.1103516 0-.1953125.0356445-.2685547.1123047-.0771484.0800781-.1132813.1704102-.1132813.2836914v8.5986328c0 .1118164.0341797.1987305.109375.2724609v.0009766c.1503906.1503906.3964844.1489258.5566406-.0043945.0761719-.0737305.1123047-.1591797.1123047-.269043v-3.2568359h2.8066406c.8457031 0 1.5380859-.1411133 2.0595703-.4199219.5146484-.2739258.8857422-.6259766 1.1054688-1.0473633.2236328-.4301758.3369141-.9018555.3369141-1.4018555 0-.4995117-.1132813-.9711914-.3369141-1.4018555-.2197266-.4208984-.5917969-.7734375-1.1044922-1.046875-.5234375-.2788086-1.2158203-.4199219-2.0605469-.4199219h-3.2031249zm3.0771485 5.0297852h-2.6806641v-4.3217773h2.6806641c1.0302734 0 1.7460938.2011719 2.1865234.6157227.4394531.4125977.6621094.9326172.6621094 1.5449219s-.2226563 1.1323242-.6621094 1.5454102c-.4404297.4145506-1.15625.6157225-2.1865234.6157225zm-2.1806641-.5h2.1806641c.8847656 0 1.5058594-.1616211 1.8447266-.4799805.3388672-.3193359.5039063-.7055664.5039063-1.1811523s-.1650391-.8618164-.5039063-1.1806641c-.3388672-.3183594-.9599609-.4799805-1.8447266-.4799805h-2.1806641z"/></g><g><path d="m30.7196655 50.8363419c-.1220703-.121582-.1826172-.2714844-.1826172-.449707v-8.5283203c0-.1777344.0605469-.3300781.1826172-.456543.1210938-.1264648.2714844-.1894531.4492188-.1894531h2.8242188c1.0673828 0 1.9736328.2363281 2.71875.7094727.7441406.4731445 1.3037109 1.0839844 1.6787109 1.8334961.3740234.7495117.5615234 1.5361328.5615234 2.3603516s-.1875 1.6108398-.5615234 2.3603516c-.375.7495117-.9345703 1.3603516-1.6787109 1.8334961-.7451172.4731445-1.6513672.7094727-2.71875.7094727h-2.8242188c-.1777344-.0000003-.328125-.0610354-.4492188-.1826174zm3.1191407-1.0117188c.7675781 0 1.4414063-.1567383 2.0224609-.4707031.5810547-.3134766 1.0302734-.7490234 1.3486328-1.3066406.3183594-.5571289.4785156-1.2011719.4785156-1.9316406s-.1601563-1.3745117-.4785156-1.9321289c-.3183594-.5571289-.7675781-.9926758-1.3486328-1.3066406-.5810547-.3134766-1.2548828-.4707031-2.0224609-.4707031h-2.0234375v7.418457h2.0234375z"/><path d="m33.993103 51.268959h-2.8242188c-.2421875 0-.4589844-.0883789-.6259766-.2558594-.1699219-.1694336-.2558594-.3798828-.2558594-.6264648v-8.5283203c0-.2446289.0849609-.456543.2529297-.6303711.1660156-.1733398.3837891-.265625.6289063-.265625h2.8242188c1.1113281 0 2.0703125.2519531 2.8525391.7485352.7802734.4956055 1.375 1.1459961 1.7685547 1.9326172.3896484.7817383.5878906 1.6132813.5878906 2.472168s-.1982422 1.6904297-.5878906 2.472168c-.3935547.7866211-.9882813 1.4370117-1.7685547 1.9326172-.7822266.4965819-1.7412109.748535-2.8525391.748535zm-2.8242187-9.8066406c-.1103516 0-.1953125.0356445-.2685547.1123047-.0771484.0800781-.1132813.1704102-.1132813.2836914v8.5283203c0 .1118164.0341797.1982422.109375.2724609v.0009766c.0742188.0742188.1611328.1088867.2724609.1088867h2.8242188c1.0146484 0 1.8837891-.2255859 2.5849609-.6704102.7021484-.4462891 1.2363281-1.0297852 1.5888672-1.734375.3554688-.7114258.5351563-1.4682617.5351563-2.2485352s-.1796875-1.5371094-.5351563-2.2485352c-.3525391-.7045898-.8867188-1.2880859-1.5888672-1.734375-.7011719-.4448242-1.5703125-.6704102-2.5849609-.6704102h-2.8242187zm2.6699219 8.6123047h-2.2734375v-7.918457h2.2734375c.8046875 0 1.5253906.168457 2.1416016.5004883.6191406.3349609 1.1064453.8071289 1.4462891 1.402832.3398438.5942383.5117188 1.2861328.5117188 2.0561523s-.171875 1.4619141-.5117188 2.0556641c-.3398438.5961914-.8271484 1.0683594-1.4462891 1.402832-.6152345.3320313-1.3359376.5004883-2.1416016.5004883zm-1.7734375-.5h1.7734375c.7216797 0 1.3623047-.1484375 1.9033203-.4404297.5361328-.2895508.9570313-.6967773 1.2509766-1.2109375.2949219-.5175781.4453125-1.1254883.4453125-1.8076172s-.1503906-1.2900391-.4453125-1.8081055c-.2939453-.5136719-.7148438-.9208984-1.2509766-1.2109375-.5419922-.2919922-1.1826172-.4404297-1.9033203-.4404297h-1.7734375z"/></g><g><path d="m41.2714233 50.9066544c-.1220703-.121582-.1826172-.2714844-.1826172-.449707v-8.5986328c0-.1777344.0605469-.3300781.1826172-.456543.1210938-.1264648.2714844-.1894531.4492188-.1894531h5.4658203c.1679688 0 .3105469.0585938.4277344.175293.1171875.1171875.1757813.2602539.1757813.4287109s-.0585938.309082-.1757813.4213867-.2597656.168457-.4277344.168457h-4.8193359v3.1049805h4.3271484c.1689453 0 .3115234.059082.4287109.1757813.1171875.1171875.1757813.2597656.1757813.4287109 0 .168457-.0585938.309082-.1757813.4213867s-.2597656.168457-.4287109.168457h-4.3271484v3.7514648c0 .1782227-.0634766.328125-.1894531.449707-.1269531.121582-.2792969.1826172-.4570313.1826172s-.328125-.0610351-.4492188-.1826171z"/><path d="m41.7206421 51.3392715c-.2421875 0-.4589844-.0883789-.6259766-.2558594-.1699219-.1694336-.2558594-.3798828-.2558594-.6264648v-8.5986328c0-.2446289.0849609-.456543.2529297-.6303711.1660156-.1733398.3837891-.265625.6289063-.265625h5.4658203c.2353516 0 .4384766.0834961.6044922.2480469.1630859.1635742.2490234.3725586.2490234.605957 0 .2353516-.0878906.4433594-.2529297.6020508-.1650391.1577148-.3671875.237793-.6005859.237793h-4.5693359v2.6049805h4.0771484c.2363281 0 .4394531.0834961.6054688.2485352.1650391.1655273.2490234.3696289.2490234.605957 0 .2353516-.0878906.4433594-.2529297.6020508-.1650391.1577148-.3671875.237793-.6015625.237793h-4.0771484v3.5014648c0 .2441406-.0917969.4619141-.265625.6293945-.1757813.1679687-.3876953.2529296-.6308594.2529296zm0-9.8769531c-.1103516 0-.1953125.0356445-.2685547.1123047-.0771484.0800781-.1132813.1704102-.1132813.2836914v8.5986328c0 .1118164.0341797.1987305.109375.2724609v.0009766c.1503906.1503906.3964844.1489258.5566406-.0043945.0761719-.0737305.1123047-.1591797.1123047-.269043v-4.0014648h4.5771484c.1044922 0 .1855469-.03125.2558594-.0991211.0673828-.0644531.0986328-.1411133.0986328-.2407227 0-.1020508-.0322266-.1821289-.1025391-.2519531s-.1503906-.1025391-.2519531-.1025391h-4.5771484v-3.6049805h5.0693359c.1035156 0 .1845703-.03125.2548828-.0991211.0673828-.0644531.0986328-.1411133.0986328-.2407227 0-.1020508-.0322266-.1821289-.1025391-.2519531-.0703125-.0693359-.1494141-.1020508-.2509766-.1020508h-5.4658201z"/></g></g></g></svg>