<?xml version="1.0"?>
<svg xmlns="http://www.w3.org/2000/svg" id="Layer_1" data-name="Layer 1" viewBox="0 0 512 512"><defs><style>.cls-1{fill:#2196f3;fill-rule:evenodd;}</style></defs><path class="cls-1" d="M256,275.164A19.161,19.161,0,1,1,275.16,256,19.174,19.174,0,0,1,256,275.164Zm0-62.323A43.16,43.16,0,1,0,299.16,256,43.206,43.206,0,0,0,256,212.841ZM456.92,372c-10.218,17.69-40.888,24.232-84.158,17.94q-10.727-1.557-22.043-4.09a502.353,502.353,0,0,0,11.5-68.521,502.45,502.45,0,0,0,53.591-44.223q7.833,8.518,14.571,17.043c27.076,34.331,36.746,64.162,26.539,81.851Zm-143.3,52.091C297.429,464.711,276.429,488,256,488s-41.43-23.293-57.619-63.912q-4-10.082-7.472-21.132A504.341,504.341,0,0,0,256,378.652,504.616,504.616,0,0,0,321.09,402.96q-3.453,11.031-7.471,21.132ZM139.241,389.941c-43.27,6.292-73.94-.25-84.162-17.94s-.538-47.52,26.543-81.851q6.716-8.512,14.566-17.043a503.05,503.05,0,0,0,53.591,44.223,503.9,503.9,0,0,0,11.5,68.521q-11.293,2.518-22.039,4.09ZM55.079,140c7.67-13.284,26.873-20.279,54.284-20.279a209.145,209.145,0,0,1,29.878,2.34q10.728,1.563,22.039,4.089a504.078,504.078,0,0,0-11.5,68.526A503.533,503.533,0,0,0,96.188,238.9q-7.825-8.52-14.566-17.048C54.541,187.524,44.871,157.693,55.079,140Zm143.3-52.092C214.569,47.294,235.569,24,256,24s41.43,23.293,57.62,63.907q4,10.085,7.471,21.138A504.408,504.408,0,0,0,256,133.348a504.133,504.133,0,0,0-65.091-24.3q3.453-11.039,7.472-21.138ZM364.549,226.384q.695,14.648.689,29.619t-.689,29.619c12.4-9.671,23.939-19.591,34.449-29.619-10.51-10.029-22.047-19.949-34.449-29.619Zm-79.931-79.195q13.039,6.728,26,14.2t25.3,15.415c-2.17-15.58-4.991-30.529-8.42-44.642-13.939,4.085-28.3,9.113-42.883,15.024ZM201.38,161.4q12.948-7.485,26-14.207c-14.581-5.911-28.94-10.939-42.884-15.024-3.429,14.113-6.245,29.062-8.415,44.642q12.326-7.917,25.3-15.411ZM147.449,285.622q-.686-14.647-.688-29.619t.688-29.619c-12.4,9.67-23.939,19.59-34.449,29.619,10.51,10.028,22.053,19.944,34.449,29.619Zm79.932,79.19q-13.033-6.721-26-14.2t-25.3-15.406c2.17,15.566,4.986,30.52,8.415,44.638,13.944-4.09,28.3-9.118,42.884-15.029ZM335.921,335.2q-12.333,7.919-25.3,15.406-12.948,7.473-26,14.2c14.58,5.911,28.944,10.939,42.883,15.029,3.429-14.118,6.25-29.072,8.42-44.638Zm-37.3-5.382c14.17-8.18,27.793-16.788,40.713-25.708,1.26-15.652,1.911-31.746,1.911-48.11s-.651-32.459-1.911-48.11c-12.92-8.92-26.543-17.533-40.713-25.718s-28.43-15.66-42.619-22.392C241.81,166.515,227.551,174,213.38,182.175s-27.788,16.8-40.708,25.718c-1.265,15.651-1.911,31.746-1.911,48.11s.646,32.458,1.911,48.11c12.92,8.92,26.538,17.528,40.708,25.708s28.43,15.67,42.619,22.4c14.189-6.731,28.449-14.212,42.619-22.4Zm74.144-207.76a209.116,209.116,0,0,1,29.878-2.336c27.4,0,46.61,7,54.28,20.275,10.207,17.693.537,47.524-26.539,81.851Q423.66,230.37,415.81,238.9a502.933,502.933,0,0,0-53.591-44.223,502.533,502.533,0,0,0-11.5-68.526q11.3-2.511,22.043-4.089ZM477.7,128C462.09,100.966,423.6,90.418,369.309,98.31q-12.15,1.769-24.968,4.684-3.885-12.531-8.434-23.968C315.6,28.067,287.222,0,256,0s-59.6,28.067-79.907,79.026q-4.551,11.414-8.43,23.968-12.8-2.908-24.972-4.684C88.4,90.418,49.909,100.966,34.3,128s-5.5,65.643,28.482,108.711Q70.389,246.366,79.32,256q-8.908,9.623-16.538,19.283C28.8,318.354,18.691,356.963,34.3,384c12.231,21.189,38.5,32.251,75.431,32.251a231.128,231.128,0,0,0,32.959-2.562q12.148-1.768,24.972-4.679c2.59,8.349,5.4,16.359,8.43,23.972C196.4,483.943,224.781,512,256,512s59.6-28.057,79.908-79.016c3.033-7.613,5.844-15.623,8.434-23.972q12.793,2.893,24.968,4.679a229.474,229.474,0,0,0,32.958,2.552c36.921,0,63.2-11.062,75.431-32.241,15.609-27.039,5.5-65.648-28.477-108.716q-7.607-9.643-16.542-19.283,8.915-9.623,16.542-19.284C483.2,193.647,493.307,155.043,477.7,128Z"/></svg>
