<svg width="200" height="200" viewBox="0 0 200 200" fill="none" xmlns="http://www.w3.org/2000/svg">
<g id="Frame 1" clip-path="url(#clip0_10_2)">
<path id="Vector" d="M150.775 3L149.569 10.0541C147.703 23.4227 148.379 27.2474 153.493 32.2088L158.431 36.7912L153.316 62.3737C150.26 77.6366 146.513 90.4278 144.133 94.6314C142.09 98.2577 139.71 103.598 139.195 106.466C138.343 109.894 135.448 113.34 131.025 116.389C127.117 118.879 119.445 125.554 114.009 130.912C109.666 135.296 106.675 137.985 105.05 139.139L99.7427 143.848C98.0379 146.915 97.0729 149.387 96.703 151.263C96.3331 153.193 96.5422 154.474 97.089 155.412C97.6197 156.314 98.5365 156.946 99.791 157.343C101.276 157.733 102.805 157.873 104.327 157.758C107.769 157.494 111.177 156.816 114.491 155.737C115.617 155.394 116.502 155.07 117.274 154.781C118.464 153.139 121.214 150.036 126.087 144.642C139.018 130.335 143.956 122.505 138.857 124.616C136.976 125.374 137.828 123.461 141.061 119.637C147.88 112.186 151.788 100.928 159.959 65.6211C166.424 37.7474 166.424 37.3505 171.185 37.3505C173.421 37.3505 179.741 37.7835 179.741 37.7835V3H165.234H150.775ZM212.519 60.1005C211.49 60.1005 209.785 61.8325 208.772 63.7448C206.906 67.1727 209.109 69.2654 237.191 88.9304C253.869 100.783 267.315 110.887 266.977 111.662C266.639 112.222 253.017 122.162 236.692 133.619C207.067 154.222 206.906 154.42 209.624 158.624C213.034 163.585 209.624 165.299 248.079 138.381L276 118.338V103.255L244.847 81.6778C228.007 69.8428 213.371 60.299 212.519 60.1005ZM-46.1813 62.2113C-47.0338 62.2113 -61.6696 71.9536 -78.5088 83.5902L-110 105.168V120.25L-78.6857 142.206C-61.3158 154.222 -46.6799 164.162 -46.0044 164.162C-45.3289 164.162 -43.9618 162.43 -42.5947 160.338C-40.5522 156.711 -42.2731 155.178 -71.0301 134.755C-98.42 115.469 -101.315 112.799 -98.5808 110.706C-96.876 109.371 -84.9904 102.714 -71.0301 92.9897C-39.2012 71.0335 -39.8606 70.2216 -42.4178 65.6392C-43.4311 63.7448 -45.152 62.0309 -46.1653 62.2113H-46.1813ZM93.4863 62.6263C88.79 62.5902 78.6897 70.6185 48.453 98.3118C47.1503 101.794 47.0377 104.193 47.6327 105.745C48.0187 106.809 48.7264 107.549 49.7075 108.09C50.6725 108.631 51.927 108.956 53.3102 109.082C56.0604 109.353 59.3092 108.866 61.9308 108.289L63.7 107.838C64.3056 106.927 65.1007 106.196 66.016 105.709C67.8817 104.554 75.7143 96.5438 83.5468 87.9562C97.3303 72.2964 100.563 65.2242 94.9499 62.933C94.4894 62.7275 93.9819 62.6233 93.4863 62.6263ZM128.805 73.5051C124.672 73.6314 117.225 79.0077 104.471 90.4278C98.0701 96.2551 94.0171 99.3943 91.8458 100.044L83.4182 107.513C80.2497 114.008 79.7833 118.031 80.6197 120.25C80.829 120.797 81.1329 121.293 81.5138 121.708C81.8948 122.123 82.3452 122.449 82.8392 122.668C84.0679 123.212 85.3781 123.487 86.6991 123.479C89.856 123.442 92.9938 122.926 96.0275 121.946C97.6086 121.47 99.1701 120.916 100.708 120.286L101.174 120.07L102.027 119.564C103.635 117.237 107.334 112.853 111.966 107.802C126.602 91.9613 134.081 80.7036 132.553 76.5C131.861 74.4613 130.671 73.433 128.805 73.5051ZM89.8193 92.9897C88.6292 93.134 85.9593 95.4433 81.1504 100.17C74.2024 107.062 66.6272 111.031 64.0056 109.263C63.3963 109.417 62.7851 109.562 62.1721 109.696C59.5022 110.291 56.173 110.778 53.1976 110.508C51.7957 110.412 50.4215 110.027 49.1446 109.371C47.9401 108.753 46.979 107.662 46.4426 106.304C45.8475 104.68 45.8475 102.66 46.523 100.08L36.0688 109.714L12.4103 131.67V167.265L89.9319 98.7629C89.9169 98.0128 90.0036 97.2646 90.1892 96.5438C90.7843 94.1263 90.7522 92.8995 89.8193 93.0077V92.9897ZM123.176 104.518C122.002 104.518 120.04 106.376 116.904 110.111C112.642 115.216 105.935 120.16 102.38 121.17L101.834 121.495C101.25 121.765 100.66 122.018 100.064 122.253C99.0994 122.613 97.8449 123.046 96.3974 123.479C93.5024 124.363 89.8997 125.175 86.6831 125.085C85.1666 125.083 83.6648 124.752 82.2602 124.111C80.9362 123.499 79.8755 122.335 79.3008 120.863C78.368 118.356 78.7379 114.838 80.7805 109.84L12.3942 170.26V192H42.4378L106.16 135.856C107.817 133.799 110.309 130.985 113.671 127.466C122.678 118.103 124.72 114.874 124.72 110.093C124.72 106.376 124.35 104.5 123.176 104.5V104.518ZM138.343 139.698L132.891 145.796C129.835 149.044 124.382 153.049 120.651 154.763L119.911 155.124L119.863 155.214L119.702 155.394C119.557 155.521 119.493 155.539 119.38 155.593C117.891 156.225 116.378 156.785 114.845 157.271C111.437 158.383 107.932 159.079 104.391 159.345C102.716 159.466 101.036 159.302 99.405 158.858C97.99 158.509 96.7407 157.583 95.8988 156.26C95.1268 154.925 94.9017 153.139 95.3359 150.938C95.6813 149.371 96.1943 147.857 96.8638 146.428L45.4454 192H113.832L122.002 181.5C133.228 166.814 138.343 156.314 138.343 147.33V139.698Z" fill="#973E79"/>
</g>
<defs>
<clipPath id="clip0_10_2">
<rect width="200" height="200" fill="white"/>
</clipPath>
</defs>
</svg>
