<svg xmlns="http://www.w3.org/2000/svg" version="1.1" xmlns:xlink="http://www.w3.org/1999/xlink" width="512" height="512" x="0" y="0" viewBox="0 0 64 64" style="enable-background:new 0 0 512 512" xml:space="preserve" class=""><g><g fill-rule="evenodd"><path fill="#070943" d="M48 64H16A16 16 0 0 1 0 48V16A16 16 0 0 1 16 0h32a16 16 0 0 1 16 16v32a16 16 0 0 1-16 16" opacity="1" data-original="#2d2d2d" class=""></path><path fill="#0f1d43" d="M30 18h18A9 9 0 0 0 48.92.046C48.614.029 48.311 0 48 0H16A16 16 0 0 0 0 16v32a30 30 0 0 1 30-30" opacity="1" data-original="#464646" class=""></path><path fill="#09184a" d="M48 32a16 16 0 1 0 16 16V16a16 16 0 0 1-16 16" opacity="1" data-original="#141414" class=""></path><path fill="#ffffff" d="M26 50.351a2 2 0 0 1-2.783 1.84 22.02 22.02 0 1 1 17.56-.014 1.984 1.984 0 0 1-2.761-1.826C38 47.99 38 45 38 45a6 6 0 0 0-1.757-4.243q-.188-.187-.39-.356a.227.227 0 0 1 .145-.4L36 40a10 10 0 0 0 10-10 9.956 9.956 0 0 0-2.011-6.016 9.656 9.656 0 0 0-.096-4.608l-.17-.635a1 1 0 0 0-1.225-.707l-.635.17a9.654 9.654 0 0 0-3.8 2.009A10.037 10.037 0 0 0 36 20h-8a10.037 10.037 0 0 0-2.063.213 9.654 9.654 0 0 0-3.8-2.009l-.635-.17a1 1 0 0 0-1.224.707l-.17.635a9.656 9.656 0 0 0-.096 4.608A9.956 9.956 0 0 0 18 30a10 10 0 0 0 10 10h.002a.227.227 0 0 1 .144.4q-.2.17-.389.357A6 6 0 0 0 26.084 44H25a6 6 0 0 1-4.8-2.4A3.998 3.998 0 0 0 17 40H17a1 1 0 0 0 0 2 1.766 1.766 0 0 1 1.514.857l.155.259A8 8 0 0 0 25.53 47H26z" opacity="1" data-original="#ffffff" class=""></path></g></g></svg>